<?xml version="1.0" encoding="utf-8"?>
<!-- Generator: Adobe Illustrator 19.2.1, SVG Export Plug-In . SVG Version: 6.00 Build 0)  -->
<svg version="1.1" id="layer" xmlns="http://www.w3.org/2000/svg" xmlns:xlink="http://www.w3.org/1999/xlink" x="0px" y="0px"
	 viewBox="0 0 652 652" style="enable-background:new 0 0 652 652;" xml:space="preserve">
<style type="text/css">
	.st0{fill:#A2C062;}
	.st1{fill:#B4B4B2;}
	.st2{fill:#465055;}
	.st3{fill:#7F7F73;}
</style>
<path class="st0" d="M116.4,278.9l-1.1-0.9l-1.1,0.9c-7.7,5.7-9.4,16.5-3.7,24.2c1,1.4,2.3,2.6,3.7,3.7l1.1,0.9l1.1-0.9
	c7.7-5.7,9.3-16.6,3.6-24.3C119,281.1,117.7,279.9,116.4,278.9z M65.4,306.2c-5.4-1.2-11,0.2-15.2,3.7l-1.1,0.9l0.6,1.3
	c2.2,5,6.6,8.8,11.9,10.1c1.3,0.3,2.5,0.5,3.8,0.5c4.1-0.1,8.1-1.5,11.4-4.1l1.1-0.9l-0.6-1.3C75.2,311.3,70.8,307.6,65.4,306.2z
	 M180.3,309.9c-7.3-6.2-18.3-5.3-24.5,2c-1.1,1.3-2,2.8-2.7,4.4l-0.6,1.3l1.1,0.9c3.2,2.6,7.2,4.1,11.4,4.1c1.3,0,2.6-0.2,3.8-0.5
	c5.3-1.3,9.7-5.1,11.9-10.1l0.6-1.3L180.3,309.9z M177.2,276.3l-1.4-0.2c-9.4-2.1-18.6,3.9-20.7,13.2c-0.4,1.7-0.5,3.4-0.3,5.2
	l0.1,1.4l1.4,0.2c1.2,0.2,2.4,0.3,3.6,0.3c4.2,0.1,8.3-1.4,11.5-4.2c4.1-3.7,6.2-9,5.9-14.5L177.2,276.3z M69.8,280
	c-4.2-3.6-9.8-5-15.1-3.9l-1.4,0.2l-0.1,1.4c-0.4,5.5,1.8,10.8,5.9,14.5c3.2,2.8,7.3,4.3,11.5,4.2c1.2,0,2.4-0.1,3.6-0.3l1.4-0.3
	v-1.4C76,289,73.9,283.7,69.8,280z M116.4,244.1l-1.1-0.9l-1.1,0.9c-4.4,3.3-7,8.5-7.1,14c0.1,5.5,2.7,10.6,7.1,14l1.1,0.9l1.1-0.9
	c4.4-3.3,7-8.5,7.1-14C123.3,252.5,120.7,247.4,116.4,244.1z M152.3,346.7c-4.1-3.7-9.7-5.2-15.1-4.2l-1.4,0.2l-0.1,1.4
	c-0.5,5.5,1.6,10.9,5.6,14.6l0,0c3.2,2.9,7.5,4.5,11.8,4.4c1.1,0,2.2-0.1,3.2-0.2l1.4-0.2l0.1-1.4
	C158.3,355.8,156.3,350.4,152.3,346.7z M94.7,342.7l-1.4-0.2c-9.4-1.9-18.5,4.2-20.4,13.6c-0.3,1.7-0.4,3.5-0.2,5.2l0.1,1.4l1.4,0.2
	c1.1,0.2,2.2,0.2,3.2,0.2c4.4,0.1,8.6-1.5,11.8-4.4l0,0c4-3.8,6.1-9.1,5.6-14.6L94.7,342.7z M52.9,334.5c-4.9,2.5-8.4,7-9.5,12.4
	l-0.3,1.4l1.3,0.6c2.6,1.3,5.4,1.9,8.3,2c2.5,0,5.1-0.6,7.4-1.7c4.9-2.5,8.4-7,9.5-12.4l0.3-1.4l-1.3-0.6
	C63.7,332.3,57.9,332.2,52.9,334.5z M187.1,346.9c-1.8-9.4-10.8-15.6-20.3-13.8c-1.7,0.3-3.4,0.9-4.9,1.7l-1.3,0.6l0.3,1.4
	c1.1,5.4,4.6,10,9.5,12.4c2.3,1.1,4.8,1.7,7.4,1.7c2.9,0,5.7-0.7,8.3-2l1.3-0.6L187.1,346.9z M86.6,264.2l-1.4-0.4l-0.6,1.3
	c-4.7,8.3-1.8,18.9,6.6,23.6c1.5,0.9,3.1,1.5,4.8,1.8l1.4,0.4l0.6-1.3c4.7-8.3,1.8-18.9-6.6-23.6C90,265.1,88.3,264.5,86.6,264.2z
	 M145.9,265.1l-0.6-1.3l-1.4,0.4c-9.4,2-15.3,11.3-13.3,20.6c0.4,1.7,1,3.3,1.8,4.8l0.6,1.3l1.4-0.4c9.4-2,15.3-11.3,13.3-20.6
	C147.4,268.2,146.7,266.6,145.9,265.1z M85.3,297.4h-1.4l-0.3,1.4c-1.3,5.3,0,11,3.4,15.3l0,0c3.5,4.2,8.7,6.5,14.1,6.3h1.6l0.3-1.4
	c1.3-5.3,0-11-3.4-15.3C96.3,299.6,91.3,297.4,85.3,297.4z M146.9,298.8l-0.3-1.4h-1.4c-5.9,0-10.9,2.2-14.3,6.3
	c-3.4,4.3-4.7,9.9-3.4,15.3l0.3,1.4h1.6c5.4,0.2,10.6-2.2,14.1-6.3l0,0C146.9,309.8,148.2,304.1,146.9,298.8z"/>
<path class="st1" d="M387.9,321.6v3H379v4.8h8.1v3H379v7.1h-3.4v-17.9H387.9z M405.7,339.4l-3.1-5.3c-0.2,0-0.4,0-0.6,0h-4v5.3h-3.4
	v-17.8h7.5c4.6,0,7.2,2.2,7.2,6.2c0,2.8-1.2,4.8-3.6,5.8l3.9,5.9H405.7z M397.9,331.2h4c2.5,0,4-1.1,4-3.3c0-2.3-1.4-3.3-4-3.3h-4
	V331.2z M421,321.6v17.9h-3.4v-17.9H421z M435.8,324.5c-1.6,0-2.7,0.6-2.7,1.7c0,3.7,9.6,1.7,9.6,8.1c0,3.3-2.9,5.3-6.8,5.3
	c-2.8,0-5.5-1-7.6-2.9l1.4-2.9c1.7,1.6,3.9,2.5,6.2,2.6c1.9,0,3.1-0.7,3.1-2c0-3.7-9.6-1.6-9.6-8c0-3.1,2.7-5.1,6.7-5.1
	c2.3,0,4.5,0.6,6.4,1.8l-1.4,3C439.5,325.2,437.7,324.7,435.8,324.5z M458.2,324.5c-3.3,0-5.9,2.7-5.9,5.9c0,3.3,2.7,5.9,5.9,5.9
	c0,0,0,0,0,0c1.8-0.1,3.6-0.8,4.9-2.1l2,2.2c-1.9,1.9-4.4,3-7,3.1c-5,0.1-9.2-3.8-9.3-8.8c0-0.1,0-0.2,0-0.3c0-5.1,4.1-9,9.4-9
	c2.6,0,5.1,1.1,6.9,2.9l-2,2.5C461.8,325.4,460,324.6,458.2,324.5z M488.7,330.5c0,5.1-4.1,9.1-9.5,9.1s-9.5-4-9.5-9.1s4.1-9,9.5-9
	S488.7,325.4,488.7,330.5z M473.1,330.5c0,3.3,2.7,6,6.1,6c3.3,0,6-2.8,5.9-6.1c0-3.3-2.8-6-6.1-5.9
	C475.8,324.6,473.2,327.2,473.1,330.5z"/>
<path class="st2" d="M115.3,224.5c-52.2,0-94.7,44-94.7,98c0,41.2,22.1,75.7,57.6,89.9c0.3,0.1,0.7,0.2,1,0.2
	c1.5,0.2,2.9-0.9,3.1-2.4c0.2-1.4-0.7-2.7-2-3c-33.4-13.4-54.1-45.9-54.1-84.7c0-50.9,40-92.4,89.1-92.4s89.1,41.4,89.1,92.4
	c0,37.7-21.3,70.9-54.3,84.6c-0.7,0.3-1.2,0.8-1.5,1.5c-0.7,1.4-0.1,3,1.3,3.7c0.8,0.4,1.6,0.4,2.4,0c35.1-14.6,57.8-49.8,57.8-89.8
	C210,268.5,167.5,224.5,115.3,224.5z M158.1,332.4c-0.2-0.7-0.6-1.4-1.2-1.7c-0.9-0.5-1.7-1-2.6-1.5c-6.8-3.6-13.2-4.3-19.1-2
	c-7.2,2.8-13.1,10.2-17,21.3c-0.1,0.2-0.1,0.3-0.2,0.5v-32.9c0-1.5-1.3-2.8-2.8-2.8s-2.8,1.3-2.8,2.8V349c-0.1-0.2-0.1-0.3-0.2-0.5
	c-4-11.4-10.1-18.9-17.6-21.5c-6.4-2.3-13.5-1-21,3.7c-1.3,0.8-1.7,2.5-0.9,3.9c0.4,0.6,1,1.1,1.7,1.2c0.7,0.2,1.5,0,2.1-0.4
	c6-3.7,11.4-4.8,16.2-3.2c5.9,2.1,10.8,8.3,14.2,18.1c4.1,11.6,10.3,47.6-13.7,59.5c-1.4,0.7-1.9,2.4-1.3,3.8c0.5,1,1.4,1.6,2.5,1.6
	c0.4,0,0.9-0.1,1.3-0.3c7.6-3.8,13.5-10.2,16.6-18.1V414c0,1.5,1.3,2.8,2.8,2.8s2.8-1.3,2.8-2.8v-18.3c3.5,8.8,9.3,15.2,17.2,19.2
	c0.4,0.2,0.8,0.3,1.2,0.3c1.5,0,2.8-1.2,2.8-2.7c0-0.3,0-0.7-0.2-1c-0.2-0.7-0.7-1.3-1.4-1.6c-24.8-12.4-17.5-50.1-14.2-59.5
	s8.1-15.7,13.8-17.9c4.2-1.7,9.1-1.1,14.4,1.7c0.7,0.4,1.5,0.8,2.2,1.3c0.6,0.4,1.4,0.5,2.1,0.4c0.7-0.2,1.4-0.6,1.7-1.2
	C158.1,333.9,158.3,333.1,158.1,332.4z M247.8,251.5H282v6.6h-13.4v34.1h-7.2v-34.1h-13.6V251.5z M318.5,276.2h-19.8v16h-7.2v-40.7
	h7.2v18.3h19.8v-18.2h7.2v40.6h-7.2V276.2z M339.1,251.5h26.5v6.6h-19.3v11.4h17.5v6.4h-17.5v9.7h19.3v6.6h-26.5V251.5z
	 M430.7,270.9v17.5c-4.7,3.1-10.1,4.7-15.7,4.6c-13.8,0-22.9-9-22.9-21.1c0-11.8,9.9-21,21.9-21c9.1,0,14.4,3.3,14.4,3.3l-2.5,6.1
	c-3.3-1.6-7-2.5-10.6-2.7c-9.5,0-15.4,6-15.4,14.3c0,8.2,6.2,14.2,14.7,14.2c3.2,0,6.3-0.6,9.3-1.6v-7.2h-11.3v-6.4L430.7,270.9z
	 M443.1,251.5h13c10.8,0,16.3,6,16.3,14.5c0,5.6-2.3,10.1-7.4,12.4l10.4,13.8H467l-8.6-11.9c-1.2,0.1-2.4,0.2-3.7,0.2h-4.5v11.8H443
	L443.1,251.5z M450.2,258.1V274h5.3c6.7,0,9-3.6,9-8c0-4.5-2.3-7.9-9-7.9H450.2z M502.2,250.9c12.6,0,21.8,8.8,21.8,21
	c0,11.9-9.3,21-21.8,21s-21.7-9-21.7-21C480.5,260.1,490,250.9,502.2,250.9z M502.3,286.5c7.9,0,14-6.3,14-14.6s-5.8-14.6-14-14.6
	s-14,6.3-14,14.6C488.3,280.1,494.4,286.5,502.3,286.5z M548.1,279.3l12.5-27.8h7.5l-18.9,41.2h-2.4L528,251.5h7.7L548.1,279.3z
	 M576.4,251.5h26.5v6.6h-19.3v11.4H601v6.4h-17.5v9.7h19.3v6.6h-26.5V251.5z M609.8,257c0-3,2.5-5.3,5.4-5.3s5.3,2.5,5.3,5.4
	c0,2.9-2.4,5.3-5.4,5.3C612.2,262.4,609.8,259.9,609.8,257z M619.3,257c-0.1-2.3-2-4-4.3-3.9c-2.3,0.1-4,2-3.9,4.3
	c0.1,2.2,1.9,3.9,4.1,3.9C617.5,261.2,619.3,259.3,619.3,257z M613.1,254h1.7c1.8,0,2.6,0.7,2.6,1.8c0,0.7-0.4,1.4-1.1,1.8l1.5,2.3
	h-1.5l-1.1-2h-0.8v2h-1.2V254z M614.4,256.8h0.5c0.7,0,1.2-0.4,1.2-1c0-0.4-0.4-0.8-1.1-0.8h-0.6V256.8z"/>
<path class="st3" d="M261.4,372.3h149.9v0.8H261.4V372.3z M452.9,372.3h149.9v0.8H452.9V372.3z M422.1,366.1h3.9
	c0.5,0,0.9,0.1,1.4,0.2c0.4,0.1,0.8,0.3,1.1,0.5c0.3,0.2,0.5,0.5,0.7,0.9c0.2,0.4,0.3,0.8,0.3,1.2c0,0.6-0.2,1.1-0.5,1.6
	c-0.4,0.4-0.9,0.7-1.4,0.9l0,0c0.3,0,0.6,0.1,0.9,0.3c0.3,0.2,0.6,0.4,0.8,0.6c0.2,0.3,0.4,0.5,0.5,0.9c0.1,0.3,0.2,0.7,0.2,1.1
	c0,0.5-0.1,0.9-0.3,1.3c-0.2,0.4-0.5,0.7-0.8,1c-0.4,0.3-0.8,0.5-1.2,0.6c-0.5,0.1-1,0.2-1.5,0.2h-3.8L422.1,366.1z M423.6,370.7
	h2.1c0.3,0,0.5,0,0.8-0.1c0.2,0,0.5-0.1,0.7-0.3c0.2-0.1,0.3-0.3,0.5-0.5c0.1-0.2,0.2-0.5,0.2-0.8c0-0.9-0.7-1.6-1.5-1.7
	c-0.1,0-0.2,0-0.2,0h-2.4V370.7z M423.6,375.9h2.2c0.3,0,0.5,0,0.8-0.1c0.3-0.1,0.5-0.2,0.8-0.3c0.2-0.1,0.5-0.3,0.6-0.6
	c0.2-0.3,0.3-0.6,0.3-1c0-0.6-0.2-1.1-0.7-1.5c-0.5-0.4-1.1-0.5-1.8-0.5h-2.2V375.9z M437.9,372.5l-4.2-6.4h1.9l3,4.9l3.2-4.9h1.8
	l-4.2,6.4v4.8h-1.5V372.5z M365.9,400v11.1c0,0.1-0.1,0.2-0.2,0.2l0,0h-2.3c-0.1,0-0.2-0.1-0.2-0.2l0,0v-16.5c0-0.1,0.1-0.2,0.2-0.2
	c0,0,0,0,0,0h1.8c0.1,0,0.1,0,0.2,0.1l9.2,11.6c0.1,0.1,0.2,0.1,0.3,0c0,0,0.1-0.1,0.1-0.2v-11.3c0-0.1,0.1-0.2,0.2-0.2h2.3
	c0.1,0,0.2,0.1,0.2,0.2v16.5c0,0.1-0.1,0.2-0.2,0.2c0,0,0,0,0,0h-1.9c-0.1,0-0.1,0-0.2-0.1l-9.2-11.4c-0.1-0.1-0.2-0.1-0.3,0
	C365.9,399.9,365.8,399.9,365.9,400 M397,409.2v1.9c0,0.1-0.1,0.2-0.2,0.2l0,0h-11.2c-0.1,0-0.2-0.1-0.2-0.2l0,0v-16.5
	c0-0.1,0.1-0.2,0.2-0.2h11c0.1,0,0.2,0.1,0.2,0.2c0,0,0,0,0,0v1.9c0,0.1-0.1,0.2-0.2,0.2l0,0h-8.3c-0.1,0-0.2,0.1-0.2,0.2l0,0v4.4
	c0,0.1,0.1,0.2,0.2,0.2l0,0h7.1c0.1,0,0.2,0.1,0.2,0.2l0,0v1.8c0,0.1-0.1,0.2-0.2,0.2c0,0,0,0,0,0h-7.1c-0.1,0-0.2,0.1-0.2,0.2v4.7
	c0,0.1,0.1,0.2,0.2,0.2c0,0,0,0,0,0h8.5C396.9,409,397,409.1,397,409.2L397,409.2 M430.5,411.1v-16.5c0-0.1,0.1-0.2,0.2-0.2
	c0,0,0,0,0,0h2.3c0.1,0,0.2,0.1,0.2,0.2l0,0v14.1c0,0.1,0.1,0.2,0.2,0.2c0,0,0,0,0,0h8.7c0.1,0,0.2,0.1,0.2,0.2c0,0,0,0,0,0v1.9
	c0,0.1-0.1,0.2-0.2,0.2c0,0,0,0,0,0h-11.3C430.6,411.3,430.5,411.2,430.5,411.1L430.5,411.1 M452.3,394.4h2c0.1,0,0.2,0,0.2,0.1
	l6.5,16.5c0,0.1,0,0.2-0.1,0.3c0,0,0,0-0.1,0h-2.4c-0.1,0-0.2-0.1-0.2-0.1l-1.7-4.3c0-0.1-0.1-0.1-0.2-0.1h-6.2
	c-0.1,0-0.2,0.1-0.2,0.1l-1.7,4.3c0,0.1-0.1,0.1-0.2,0.1h-2.4c-0.1,0-0.2-0.1-0.2-0.2c0,0,0,0,0-0.1l6.6-16.5
	C452.2,394.4,452.3,394.4,452.3,394.4 M456,404.4l-2.4-6.4c0-0.1-0.1-0.2-0.3-0.1c-0.1,0-0.1,0.1-0.1,0.1l-2.5,6.4
	c0,0.1,0,0.2,0.1,0.3c0,0,0,0,0.1,0h4.9C455.9,404.7,456,404.6,456,404.4C456,404.5,456,404.5,456,404.4 M468.7,400v11.1
	c0,0.1-0.1,0.2-0.2,0.2l0,0h-2.3c-0.1,0-0.2-0.1-0.2-0.2l0,0v-16.5c0-0.1,0.1-0.2,0.2-0.2c0,0,0,0,0,0h1.8c0.1,0,0.1,0,0.2,0.1
	l9.2,11.6c0.1,0.1,0.2,0.1,0.3,0.1c0.1,0,0.1-0.1,0.1-0.2v-11.3c0-0.1,0.1-0.2,0.2-0.2l0,0h2.3c0.1,0,0.2,0.1,0.2,0.2v16.5
	c0,0.1-0.1,0.2-0.2,0.2c0,0,0,0,0,0h-1.9c-0.1,0-0.1,0-0.2-0.1l-9.1-11.4c-0.1-0.1-0.2-0.1-0.3,0C468.7,399.9,468.7,399.9,468.7,400
	 M487.5,411.1v-16.5c0-0.1,0.1-0.2,0.2-0.2h5.8c1.2,0,2.4,0.2,3.6,0.7c1,0.4,1.9,1,2.6,1.8c0.7,0.8,1.2,1.7,1.6,2.7
	c0.4,1.1,0.5,2.2,0.5,3.3c0,1.2-0.2,2.4-0.6,3.5c-0.4,1-0.9,1.9-1.7,2.7c-0.7,0.8-1.6,1.3-2.6,1.7c-1.1,0.4-2.2,0.6-3.4,0.6h-5.8
	C487.6,411.3,487.5,411.2,487.5,411.1L487.5,411.1 M499,402.8c0-0.8-0.1-1.7-0.4-2.5c-0.2-0.7-0.6-1.4-1.1-1.9
	c-0.5-0.5-1.1-1-1.7-1.2c-0.7-0.3-1.5-0.5-2.3-0.5h-3.1c-0.1,0-0.2,0.1-0.2,0.2v11.8c0,0.1,0.1,0.2,0.2,0.2l0,0h3.1
	c0.8,0,1.6-0.1,2.4-0.5c0.7-0.3,1.3-0.7,1.7-1.3c0.5-0.6,0.8-1.2,1.1-1.9C498.9,404.4,499,403.6,499,402.8 M412.7,394.4
	c-0.1,0-0.2,0.1-0.2,0.1l-4,12.9c0,0.1-0.1,0.1-0.2,0.1c0,0-0.1-0.1-0.1-0.1l-4.1-12.9c0-0.1-0.1-0.1-0.2-0.1h-2.4
	c-0.1,0-0.2,0.1-0.2,0.2c0,0,0,0,0,0.1l5.8,16.5c0,0.1,0.1,0.1,0.2,0.1h2c0.1,0,0.2-0.1,0.2-0.1l4-11.2c0-0.1,0.1-0.1,0.2-0.1
	c0,0,0.1,0.1,0.1,0.1l3.9,11.2c0,0.1,0.1,0.1,0.2,0.1h2c0.1,0,0.2-0.1,0.2-0.1l5.8-16.5c0-0.1,0-0.2-0.1-0.3c0,0,0,0-0.1,0h-2.4
	c-0.1,0-0.2,0.1-0.2,0.1l-4.1,12.9c0,0.1-0.1,0.1-0.2,0.1c0,0-0.1-0.1-0.1-0.1l-4-12.9c0-0.1-0.1-0.1-0.2-0.1L412.7,394.4z
	 M503.7,394.4c1.1,0,2,0.9,2,2c0,1.1-0.9,2-2,2c-1.1,0-2-0.9-2-2C501.7,395.3,502.6,394.4,503.7,394.4z M503.7,394.7
	c-0.9,0-1.7,0.7-1.7,1.6c0,0.9,0.7,1.7,1.6,1.7c0.9,0,1.7-0.7,1.7-1.6c0,0,0-0.1,0-0.1C505.3,395.4,504.6,394.7,503.7,394.7
	C503.7,394.7,503.7,394.7,503.7,394.7z M503.3,397.4H503v-2.2c0.2,0,0.4-0.1,0.6-0.1c0.2,0,0.5,0,0.7,0.2c0.2,0.2,0.3,0.6,0.1,0.8
	c-0.1,0.1-0.2,0.2-0.3,0.2l0,0c0.2,0,0.3,0.2,0.4,0.5c0,0.2,0.1,0.4,0.1,0.5h-0.4c-0.1-0.2-0.1-0.4-0.1-0.6c0-0.2-0.2-0.4-0.4-0.4
	c0,0,0,0-0.1,0h-0.2V397.4z M503.3,396.2h0.3c0.3,0,0.5-0.1,0.5-0.4s-0.1-0.4-0.5-0.4c-0.1,0-0.2,0-0.3,0V396.2z"/>
</svg>
